PathFileType	4	(X/Y/Z)	pose_F01_0-96.trc
DataRate	CameraRate	NumFrames	NumMarkers	Units	OrigDataRate	OrigDataStartFrame	OrigNumFrames
30	30	7	21	m	30	36	96
Frame#	Time	CHip			RHip			RKnee			RAnkle			RBigToe			RSmallToe			RHeel			LHip			LKnee			LAnkle			LBigToe			LSmallToe			LHeel			Neck			Nose			RShoulder			RElbow			RWrist			LShoulder			LElbow			LWrist			
		X1	Y1	Z1	X2	Y2	Z2	X3	Y3	Z3	X4	Y4	Z4	X5	Y5	Z5	X6	Y6	Z6	X7	Y7	Z7	X8	Y8	Z8	X9	Y9	Z9	X10	Y10	Z10	X11	Y11	Z11	X12	Y12	Z12	X13	Y13	Z13	X14	Y14	Z14	X15	Y15	Z15	X16	Y16	Z16	X17	Y17	Z17	X18	Y18	Z18	X19	Y19	Z19	X20	Y20	Z20	X21	Y21	Z21	
36	1.2	-0.1559993771496078	1.8673394669277492	-0.5082156229052751	-0.17170098834023265	1.866212240484995	-0.45028715123988544	-0.20712738103777315	1.721183384055825	-0.46731626999385467	-0.19831711483821807	1.5819008789071651	-0.4282787695020841							-0.18580130805271616	1.566229261634397	-0.42841338819252117	-0.14010794277198488	1.8705069979566835	-0.5696774219513994	-0.16234522798017673	1.7332344834295017	-0.6056737978769455	-0.13039294765908677	1.5988115976011634	-0.6018843069795184	-0.1564137818520837	1.5657178426220624	-0.6592203221232615	-0.13972777873155784	1.5727045918923908	-0.6727964969871986	-0.12402038517204926	1.58588276832046	-0.5902187280127765	-0.17920375518564333	2.03048953348398	-0.5519651404727413	-0.2244495942487168	2.077964753676608	-0.5873749550802412	-0.19849419433307586	2.0263538320063708	-0.4718824557279313	-0.19733626450555275	1.9430326035305843	-0.4293026747895506	-0.20997648260326834	1.8693985140049898	-0.41122994629718657	-0.15512333237587703	2.035220868634628	-0.6226728570562334	-1.4903214405498721	1.874574613840934	0.7423869788096524	-0.20011816212526756	2.017695046184725	-0.5932625169339563
37	1.2333333333333334	-0.15679288550466236	1.872948387840941	-0.5124264080866344	-0.17143811626771158	1.8702804041919308	-0.45107554293523283	-0.2042463263942391	1.724955796796054	-0.46650275142255115	-0.1981702523712984	1.5823985545381913	-0.4269922953819102							-0.18580130805271616	1.566229261634397	-0.42841338819252117	-0.14092901410312902	1.8761425260837363	-0.5738005855953439	-0.15394925429058	1.7323578255050083	-0.6144485851028806	-0.11486478464440687	1.600693336441767	-0.5922686331944788	-0.13792166014019291	1.5683034335692054	-0.6234717345735697	-0.12258392296273002	1.5765799847770123	-0.6401463807538684	-0.1063346799606349	1.5931199071435078	-0.5791001833995703	-0.1680258519830746	2.035374886507684	-0.5524751241320487	-0.21612595900508375	2.0834414187674724	-0.588535709050113	-0.18939874243271823	2.031434635236283	-0.478455839378697	-0.19023662332093197	1.9456190585148003	-0.43280630136122755	-0.20893135576585087	1.8686773642354875	-0.41652483522746	-0.14569021593573203	2.040278164806592	-0.6294686596321185	-0.17842211652975787	1.9755791775623495	-0.6529475040450134	-0.19906379630390506	2.018506064340616	-0.5892223818442472
38	1.2666666666666666	-0.155838177355094	1.8824494073774969	-0.5287109184463065	-0.17388336008895627	1.878102864538677	-0.46841815834481004	-0.20042373370287395	1.7292807933865335	-0.46257681386633587	-0.19802338990437873	1.5828962301692175	-0.42570582126173634							-0.18580130805271616	1.566229261634397	-0.42841338819252117	-0.13878259269369436	1.884296232628836	-0.586340359254487	-0.13929812511287218	1.7365137875030385	-0.6051000611924576	-0.11076938537570252	1.6064964339938312	-0.5753496041856425	-0.13376979194768066	1.5685278373379803	-0.5977153492522862	-0.11772058276912617	1.5763709614679187	-0.6194333562418363	-0.10178274095927456	1.596272389261692	-0.5621479276763313	-0.16116401547845344	2.0400509790705468	-0.5485287760474755	-0.2010988014559899	2.0918208914337755	-0.5859312277762724	-0.17958762015817833	2.037291736635194	-0.47406318344943027	-0.18332547512089595	1.9497061723764737	-0.43725127230692895	-0.20105111493025313	1.8736245703171341	-0.4087303706104991	-0.1425901635331774	2.045382990249502	-0.6294145401809261	-0.1769501032647896	1.983895620242995	-0.6595733894594124	-0.18417467095027548	2.025407691074623	-0.6056057950874479
39	1.3	-0.15439551403421	1.8829827126742038	-0.5432735565387234	-0.16964228887767996	1.879611335677882	-0.48211594462770774	-0.19816789020569525	1.7312488863992883	-0.4650157867690011	-0.19693408643555751	1.5828612004611442	-0.42232278333983536							-0.18580130805271616	1.566229261634397	-0.42841338819252117	-0.13869503965672958	1.8861882377945256	-0.6076177512491215	-0.13044202418469386	1.735384220446621	-0.5931626026719605	-0.10626176231299571	1.5986633765804827	-0.5796522555286592	-0.1322049642892055	1.568949378808214	-0.6121984458222859	-0.11704575647073048	1.5749639760761556	-0.6285922022716305	-0.10137215164139515	1.5899605913686417	-0.5707246075744262	-0.1520284749141816	2.0464034226046586	-0.555790341725561	-0.1939626698208132	2.097572966849088	-0.5825108335188819	-0.16881139617470212	2.041400330965505	-0.4744789929871272	-0.1755610014250965	1.950583829578306	-0.4290821037059078	-0.19600025517705502	1.876215623611688	-0.4100429504488945	-0.13325843027585035	2.0492750611669006	-0.6364250905336954	-0.17613320016720235	1.9981398916582185	-0.6702096441064413	-0.16974733284201435	2.045179456994441	-0.6276944961718509
40	1.3333333333333333	-0.1502630037603773	1.8831284692915087	-0.5479297666222104	-0.16361817248759272	1.8799321659716692	-0.4889845201085242	-0.19346527931816593	1.730231485657594	-0.46591824894677825	-0.19641284400697395	1.5828040380310149	-0.4206216242040648							-0.18580130805271616	1.566229261634397	-0.42841338819252117	-0.13435079649716644	1.8863711242456564	-0.612408973297131	-0.12589731887704414	1.7368828170736135	-0.5982942165696977	-0.10613820086754618	1.6013033529828282	-0.5800898481567892	-0.13342490080581362	1.5686990505313754	-0.6066719451648793	-0.11641928232652578	1.5763021764673373	-0.6251457959319645	-0.09833247494036919	1.5927391455263582	-0.5700138658492244	-0.14791834177775853	2.0465661020659405	-0.5602127148382767	-0.18491758901175068	2.1049084866172634	-0.5811543756050308	-0.16662716440927886	2.043981107881973	-0.47716351855570804	-0.16873761161116355	1.9545182852853205	-0.4334409714736161	-0.19296718313505773	1.8789723996368477	-0.4095852292233747	-0.12886212490694174	2.0486601149362826	-0.6405229918791943	-0.16443934636704088	2.00858505913203	-0.6809533770328248	-0.163737985309842	2.024941353754641	-0.6720125235848862
41	1.3666666666666667	-0.14814213163737905	1.8819779289855543	-0.5499136991738818	-0.16348680479218253	1.8786392341459182	-0.4886988632832643	-0.19112843611108893	1.731787152205075	-0.46857932579017114	-0.19589160157839036	1.5827468756008856	-0.4189204650682943							-0.18580130805271616	1.566229261634397	-0.42841338819252117	-0.13221107251941333	1.8865385186896149	-0.6148079402914222	-0.12354784144354182	1.741253359936105	-0.6014173654691038	-0.10543246204527015	1.6025831825530945	-0.5766929327969172	-0.13342684219813872	1.5686223261189174	-0.6065665077325518	-0.11640232538578116	1.576252219868078	-0.6250285145814194	-0.09757401726913306	1.5939639164771144	-0.5664491387282398	-0.14591580004560692	2.044238890046149	-0.5626618056835555	-0.17592793038354967	2.107079677179106	-0.5791612450285281	-0.16383436597434176	2.0413479369205563	-0.47582029350911176	-0.16384236328449356	1.9532819107109132	-0.43416652283289314	-0.18230067595561605	1.877320254413628	-0.39950616205841705	-0.12400596799319363	2.0484248845399495	-0.6433569794764279	-0.1610762681337644	2.01674287661366	-0.6885786185157058	-0.16097436036124205	2.0326087937530706	-0.663894150302077
42	1.4	-0.14518387901865643	1.8818328247724931	-0.5490386651116317	-0.1616300706855402	1.8774868633849726	-0.4907051771473639	-0.18910991781314285	1.7316713497609457	-0.47061554486153484	-0.19578669726347567	1.5822135049220765	-0.418888682261157							-0.18580130805271616	1.566229261634397	-0.42841338819252117	-0.12924690050257026	1.8864840923888546	-0.6138728564938885	-0.12023402760261506	1.737028090711275	-0.5961090766188926	-0.10397721148731905	1.6013730197018798	-0.5822800383158918	-0.13028398951733927	1.5683699602716012	-0.6055369066012385	-0.11320906347095089	1.5755895466963592	-0.624022437124872	-0.09759986754703755	1.5938581569445223	-0.5663964298265072	-0.14098431744419254	2.04554738669446	-0.5647631564778652	-0.16884479280657985	2.109506925801137	-0.5829295821193867	-0.16189412407079332	2.0405286302640424	-0.4780417931647643	-0.16106700153870654	1.9520664793458824	-0.4332940678438171	-0.18047327621394454	1.8798184865061114	-0.40227012139714735	-0.11756362779303964	2.052090904865855	-0.6511807406599324	-0.15771318990048794	2.0249006940952903	-0.6962038599985869	-0.15821073541264213	2.0402762337515004	-0.6557757770192677
